<?xml version="1.0" standalone="no"?>
<!DOCTYPE svg PUBLIC "-//W3C//DTD SVG 20010904//EN"
 "http://www.w3.org/TR/2001/REC-SVG-20010904/DTD/svg10.dtd">
<svg version="1.0" xmlns="http://www.w3.org/2000/svg"
 width="878.000000pt" height="301.000000pt" viewBox="0 0 878.000000 301.000000"
 preserveAspectRatio="xMidYMid meet">
<metadata>
Created by potrace 1.16, written by Peter Selinger 2001-2019
</metadata>
<g transform="translate(0.000000,301.000000) scale(0.100000,-0.100000)"
fill="white" stroke="none">
<path d="M1220 1845 l0 -45 170 0 170 0 0 -355 0 -355 50 0 50 0 0 355 0 355
170 0 170 0 0 45 0 45 -390 0 -390 0 0 -45z"/>
<path d="M2220 1490 l0 -400 50 0 50 0 0 180 0 180 278 -2 277 -3 3 -177 2
-178 50 0 50 0 0 400 0 400 -50 0 -50 0 0 -175 0 -175 -280 0 -280 0 0 175 0
175 -50 0 -50 0 0 -400z"/>
<path d="M3275 1878 c-3 -7 -4 -186 -3 -398 l3 -385 53 -3 52 -3 0 171 0 171
87 -3 87 -3 150 -167 150 -168 58 0 c32 0 58 3 58 6 0 3 -62 75 -137 160 -76
85 -139 159 -141 164 -2 6 12 10 30 10 54 0 124 29 167 68 117 110 84 296 -67
365 -43 20 -66 22 -294 25 -201 3 -249 1 -253 -10z m502 -97 c77 -35 106 -125
61 -190 -46 -68 -71 -75 -275 -80 l-183 -3 0 146 0 146 178 0 c152 0 183 -3
219 -19z"/>
<path d="M4220 1490 l0 -400 50 0 50 0 0 400 0 400 -50 0 -50 0 0 -400z"/>
<path d="M4540 1883 c0 -4 86 -185 192 -400 l193 -393 55 0 55 1 189 387 c104
213 191 393 194 400 5 17 -92 16 -105 0 -5 -7 -80 -163 -168 -345 -87 -183
-161 -333 -165 -333 -4 0 -81 154 -172 343 l-164 342 -52 3 c-29 2 -52 -1 -52
-5z"/>
<path d="M5610 1888 c0 -2 15 -93 33 -203 l33 -200 -28 -165 c-15 -91 -30
-180 -33 -197 l-6 -33 336 0 335 0 0 45 0 45 -278 0 -278 0 21 133 21 132 242
3 242 2 0 40 0 40 -240 0 -240 0 -5 23 c-3 12 -13 73 -23 135 l-19 112 279 0
278 0 0 45 0 45 -335 0 c-184 0 -335 -1 -335 -2z"/>
<path d="M6540 1490 l0 -400 50 0 50 0 2 342 3 343 275 -340 275 -340 68 -3
67 -3 0 401 0 400 -50 0 -50 0 -2 -340 -3 -340 -275 340 -275 340 -67 0 -68 0
0 -400z"/>
</g>
</svg>
